<mxfile host="Electron" agent="Mozilla/5.0 (X11; Linux x86_64) AppleWebKit/537.36 (KHTML, like Gecko) draw.io/24.7.17 Chrome/128.0.6613.36 Electron/32.0.1 Safari/537.36" version="24.7.17">
  <diagram name="Страница — 1" id="2wBGVwgNre5Lz_loumHW">
    <mxGraphModel dx="1114" dy="776" grid="1" gridSize="10" guides="1" tooltips="1" connect="1" arrows="1" fold="1" page="1" pageScale="1" pageWidth="827" pageHeight="1169" math="0" shadow="0">
      <root>
        <mxCell id="0" />
        <mxCell id="1" parent="0" />
        <mxCell id="8c3kww7Q4VaTC_dEtVoS-26" value="" style="rounded=0;whiteSpace=wrap;html=1;movable=0;resizable=0;rotatable=0;deletable=0;editable=0;locked=1;connectable=0;" parent="1" vertex="1">
          <mxGeometry x="20" y="10" width="740" height="470" as="geometry" />
        </mxCell>
        <mxCell id="8c3kww7Q4VaTC_dEtVoS-18" value="1 | 2 3 4&lt;div&gt;2 | 3 4 0&lt;/div&gt;&lt;div&gt;3 | 1 0 0&lt;/div&gt;&lt;div&gt;4 | 3 2 0&lt;/div&gt;" style="text;html=1;align=left;verticalAlign=middle;resizable=0;points=[];autosize=1;strokeColor=none;fillColor=none;fontSize=20;fontFamily=Courier New;fontStyle=1" parent="1" vertex="1">
          <mxGeometry x="520" y="80" width="130" height="110" as="geometry" />
        </mxCell>
        <mxCell id="8c3kww7Q4VaTC_dEtVoS-24" value="" style="group" parent="1" vertex="1" connectable="0">
          <mxGeometry x="40" y="40" width="400" height="400" as="geometry" />
        </mxCell>
        <mxCell id="8c3kww7Q4VaTC_dEtVoS-5" value="5" style="rounded=0;orthogonalLoop=1;jettySize=auto;html=1;entryX=0;entryY=0;entryDx=0;entryDy=0;exitX=1;exitY=0;exitDx=0;exitDy=0;strokeWidth=2;endSize=12;fontSize=20;verticalAlign=bottom;labelBackgroundColor=none;fontStyle=2" parent="8c3kww7Q4VaTC_dEtVoS-24" source="8c3kww7Q4VaTC_dEtVoS-1" target="8c3kww7Q4VaTC_dEtVoS-3" edge="1">
          <mxGeometry x="0.7571" y="2" relative="1" as="geometry">
            <mxPoint as="offset" />
          </mxGeometry>
        </mxCell>
        <mxCell id="8c3kww7Q4VaTC_dEtVoS-9" value="-2" style="rounded=0;orthogonalLoop=1;jettySize=auto;html=1;entryX=0;entryY=0.5;entryDx=0;entryDy=0;exitX=0.5;exitY=0;exitDx=0;exitDy=0;strokeWidth=2;endSize=12;fontSize=20;labelBackgroundColor=none;verticalAlign=bottom;spacingBottom=8;fontStyle=2" parent="8c3kww7Q4VaTC_dEtVoS-24" source="8c3kww7Q4VaTC_dEtVoS-1" target="8c3kww7Q4VaTC_dEtVoS-4" edge="1">
          <mxGeometry relative="1" as="geometry" />
        </mxCell>
        <mxCell id="8c3kww7Q4VaTC_dEtVoS-14" value="7" style="rounded=0;orthogonalLoop=1;jettySize=auto;html=1;entryX=0;entryY=0.5;entryDx=0;entryDy=0;exitX=0.5;exitY=1;exitDx=0;exitDy=0;strokeWidth=2;endSize=12;fontSize=20;labelBackgroundColor=none;verticalAlign=top;fontStyle=2" parent="8c3kww7Q4VaTC_dEtVoS-24" source="8c3kww7Q4VaTC_dEtVoS-1" target="8c3kww7Q4VaTC_dEtVoS-2" edge="1">
          <mxGeometry relative="1" as="geometry" />
        </mxCell>
        <mxCell id="8c3kww7Q4VaTC_dEtVoS-1" value="1" style="ellipse;whiteSpace=wrap;html=1;aspect=fixed;strokeWidth=3;fontSize=25;" parent="8c3kww7Q4VaTC_dEtVoS-24" vertex="1">
          <mxGeometry y="160" width="80" height="80" as="geometry" />
        </mxCell>
        <mxCell id="8c3kww7Q4VaTC_dEtVoS-8" value="3" style="rounded=0;orthogonalLoop=1;jettySize=auto;html=1;entryX=1;entryY=1;entryDx=0;entryDy=0;exitX=1;exitY=0;exitDx=0;exitDy=0;strokeWidth=2;endSize=12;fontSize=20;labelPosition=right;verticalLabelPosition=middle;align=left;verticalAlign=middle;labelBackgroundColor=none;spacingBottom=0;spacingLeft=4;spacingRight=4;fontStyle=2" parent="8c3kww7Q4VaTC_dEtVoS-24" source="8c3kww7Q4VaTC_dEtVoS-2" target="8c3kww7Q4VaTC_dEtVoS-4" edge="1">
          <mxGeometry x="0.7074" y="-2" relative="1" as="geometry">
            <mxPoint as="offset" />
          </mxGeometry>
        </mxCell>
        <mxCell id="8c3kww7Q4VaTC_dEtVoS-13" value="-4" style="rounded=0;orthogonalLoop=1;jettySize=auto;html=1;entryX=0.5;entryY=1;entryDx=0;entryDy=0;strokeWidth=2;endSize=12;fontSize=20;labelBackgroundColor=none;verticalAlign=top;fontStyle=2;exitX=1;exitY=0.5;exitDx=0;exitDy=0;" parent="8c3kww7Q4VaTC_dEtVoS-24" source="8c3kww7Q4VaTC_dEtVoS-2" target="8c3kww7Q4VaTC_dEtVoS-3" edge="1">
          <mxGeometry relative="1" as="geometry" />
        </mxCell>
        <mxCell id="8c3kww7Q4VaTC_dEtVoS-2" value="4" style="ellipse;whiteSpace=wrap;html=1;aspect=fixed;strokeWidth=3;fontSize=25;" parent="8c3kww7Q4VaTC_dEtVoS-24" vertex="1">
          <mxGeometry x="160" y="320" width="80" height="80" as="geometry" />
        </mxCell>
        <mxCell id="8c3kww7Q4VaTC_dEtVoS-6" value="-1" style="rounded=0;orthogonalLoop=1;jettySize=auto;html=1;entryX=1;entryY=1;entryDx=0;entryDy=0;exitX=0;exitY=1;exitDx=0;exitDy=0;strokeWidth=2;endSize=12;fontSize=20;verticalAlign=top;labelBackgroundColor=none;fontStyle=2" parent="8c3kww7Q4VaTC_dEtVoS-24" source="8c3kww7Q4VaTC_dEtVoS-3" target="8c3kww7Q4VaTC_dEtVoS-1" edge="1">
          <mxGeometry x="0.6988" y="2" relative="1" as="geometry">
            <mxPoint as="offset" />
          </mxGeometry>
        </mxCell>
        <mxCell id="8c3kww7Q4VaTC_dEtVoS-3" value="3" style="ellipse;whiteSpace=wrap;html=1;aspect=fixed;strokeWidth=3;fontSize=25;" parent="8c3kww7Q4VaTC_dEtVoS-24" vertex="1">
          <mxGeometry x="320" y="160" width="80" height="80" as="geometry" />
        </mxCell>
        <mxCell id="8c3kww7Q4VaTC_dEtVoS-7" value="8" style="rounded=0;orthogonalLoop=1;jettySize=auto;html=1;entryX=0;entryY=0;entryDx=0;entryDy=0;exitX=0;exitY=1;exitDx=0;exitDy=0;strokeWidth=2;endSize=12;fontSize=20;align=right;labelPosition=left;verticalLabelPosition=middle;verticalAlign=middle;labelBackgroundColor=none;spacingRight=4;spacingBottom=0;spacingLeft=4;fontStyle=2" parent="8c3kww7Q4VaTC_dEtVoS-24" source="8c3kww7Q4VaTC_dEtVoS-4" target="8c3kww7Q4VaTC_dEtVoS-2" edge="1">
          <mxGeometry x="0.5942" relative="1" as="geometry">
            <mxPoint as="offset" />
          </mxGeometry>
        </mxCell>
        <mxCell id="8c3kww7Q4VaTC_dEtVoS-11" value="6" style="rounded=0;orthogonalLoop=1;jettySize=auto;html=1;entryX=0.5;entryY=0;entryDx=0;entryDy=0;strokeWidth=2;endSize=12;fontSize=20;verticalAlign=bottom;labelBackgroundColor=none;spacingBottom=8;fontStyle=2;exitX=1;exitY=0.5;exitDx=0;exitDy=0;" parent="8c3kww7Q4VaTC_dEtVoS-24" source="8c3kww7Q4VaTC_dEtVoS-4" target="8c3kww7Q4VaTC_dEtVoS-3" edge="1">
          <mxGeometry x="-0.0022" relative="1" as="geometry">
            <mxPoint as="offset" />
          </mxGeometry>
        </mxCell>
        <mxCell id="8c3kww7Q4VaTC_dEtVoS-4" value="2" style="ellipse;whiteSpace=wrap;html=1;aspect=fixed;strokeWidth=3;fontSize=25;" parent="8c3kww7Q4VaTC_dEtVoS-24" vertex="1">
          <mxGeometry x="160" width="80" height="80" as="geometry" />
        </mxCell>
        <mxCell id="8c3kww7Q4VaTC_dEtVoS-25" value="" style="group" parent="1" vertex="1" connectable="0">
          <mxGeometry x="520" y="280" width="210" height="110" as="geometry" />
        </mxCell>
        <mxCell id="8c3kww7Q4VaTC_dEtVoS-20" value="&lt;div&gt;&lt;span style=&quot;background-color: initial;&quot;&gt;&amp;nbsp;0, -2,&amp;nbsp; 5,&amp;nbsp; 7&amp;nbsp;&lt;/span&gt;&lt;br&gt;&lt;/div&gt;&lt;div&gt;&lt;font&gt;&amp;nbsp;0,&amp;nbsp; 0,&amp;nbsp; 6,&amp;nbsp; 8&amp;nbsp;&lt;/font&gt;&lt;/div&gt;&lt;div&gt;&lt;font&gt;-1,&amp;nbsp; 0,&amp;nbsp; 0,&amp;nbsp; 0&amp;nbsp;&lt;/font&gt;&lt;/div&gt;&lt;div&gt;&lt;font&gt;&amp;nbsp;0,&amp;nbsp; 3, -4,&amp;nbsp; 0&amp;nbsp;&lt;/font&gt;&lt;/div&gt;" style="text;html=1;align=left;verticalAlign=middle;resizable=0;points=[];autosize=1;strokeColor=none;fillColor=none;fontSize=20;fontFamily=Courier New;fontStyle=1" parent="8c3kww7Q4VaTC_dEtVoS-25" vertex="1">
          <mxGeometry x="10" width="200" height="110" as="geometry" />
        </mxCell>
        <mxCell id="8c3kww7Q4VaTC_dEtVoS-21" value="" style="shape=curlyBracket;whiteSpace=wrap;html=1;rounded=1;labelPosition=left;verticalLabelPosition=middle;align=right;verticalAlign=middle;size=0.5;strokeWidth=2;" parent="8c3kww7Q4VaTC_dEtVoS-25" vertex="1">
          <mxGeometry y="5" width="20" height="100" as="geometry" />
        </mxCell>
        <mxCell id="8c3kww7Q4VaTC_dEtVoS-22" value="" style="shape=curlyBracket;whiteSpace=wrap;html=1;rounded=1;flipH=1;labelPosition=right;verticalLabelPosition=middle;align=left;verticalAlign=middle;strokeWidth=2;" parent="8c3kww7Q4VaTC_dEtVoS-25" vertex="1">
          <mxGeometry x="182" y="5" width="20" height="100" as="geometry" />
        </mxCell>
      </root>
    </mxGraphModel>
  </diagram>
</mxfile>
